<svg width="1em" height="1em" viewBox="0 0 80 80" fill="none" xmlns="http://www.w3.org/2000/svg">
<path d="M17.8669 67.662C17.8669 67.662 17.5955 67.5282 17.0527 67.2606C16.5084 66.9914 16.0039 66.6862 15.5391 66.3451C15.0743 66.0024 14.5507 65.5829 13.9682 65.0869C13.3857 64.5892 12.7634 63.9953 12.1014 63.3052C11.4394 62.615 10.9364 62.0563 10.5923 61.6291C10.2483 61.2003 9.90587 60.7426 9.56493 60.2559C9.22398 59.7676 8.88839 59.248 8.55815 58.6972C8.2279 58.1479 7.90836 57.5673 7.59953 56.9554C7.29069 56.3419 6.99561 55.6988 6.71429 55.0258C6.43144 54.3529 6.16465 53.6518 5.91391 52.9225C5.66317 52.1933 5.43078 51.4366 5.21673 50.6526C5.00269 49.8701 4.81157 49.061 4.64339 48.2254C4.47674 47.3897 4.33685 46.5305 4.22371 45.6479C4.11057 44.7653 4.02954 43.8615 3.98062 42.9366C3.93169 42.0117 3.91793 41.0681 3.93934 40.1056C3.96227 39.1432 4.0219 38.1659 4.11822 37.1737C4.21301 36.1815 4.34985 35.1776 4.52873 34.162C4.70761 33.1463 4.93236 32.1244 5.20297 31.0962C5.47359 30.0681 5.79389 29.0376 6.16389 28.0047C6.53235 26.9734 6.95433 25.9468 7.42982 24.9249C7.90378 23.903 8.43201 22.892 9.01452 21.892C9.59704 20.892 10.2346 19.9116 10.9272 18.9507C11.6198 17.9883 12.3674 17.0524 13.1701 16.1432C13.9743 15.234 14.8312 14.3592 15.7409 13.5188C16.6521 12.6784 17.6146 11.8803 18.6283 11.1244C19.6404 10.3685 20.7007 9.66275 21.8091 9.00704C22.9176 8.34976 24.0681 7.75117 25.2606 7.21127C26.4547 6.6698 27.6847 6.19327 28.9506 5.78169C30.2166 5.36854 31.5108 5.0266 32.8333 4.75587C34.1573 4.48357 35.5012 4.28717 36.865 4.16667C38.2288 4.04773 39.604 4.00704 40.9907 4.0446C42.3774 4.08372 43.7649 4.20501 45.1532 4.40845C46.5414 4.61189 47.9197 4.89828 49.2881 5.2676C50.6564 5.63693 52.0042 6.0892 53.3313 6.62441C54.6583 7.16119 55.9541 7.77778 57.2185 8.47418C58.4814 9.17058 59.7022 9.94523 60.881 10.7981C62.0598 11.6495 63.1858 12.572 64.2591 13.5657C65.3339 14.561 66.3453 15.6213 67.2932 16.7465C68.2426 17.8701 69.121 19.0509 69.9283 20.2887C70.7355 21.5266 71.464 22.8114 72.1138 24.1432C72.7651 25.475 73.3323 26.8435 73.8155 28.2488C74.2986 29.6526 74.6938 31.0822 75.0011 32.5376C75.3085 33.9914 75.5248 35.4593 75.6502 36.9413C75.7771 38.4218 75.8115 39.903 75.7534 41.385C75.6968 42.8685 75.55 44.3404 75.313 45.8005C75.0761 47.2606 74.7512 48.698 74.3384 50.1127C73.9256 51.5274 73.4294 52.9085 72.85 54.2559C72.2721 55.6017 71.6162 56.9045 70.8823 58.1643C70.1499 59.4225 69.3473 60.6275 68.4743 61.7793C67.6013 62.9327 66.6671 64.0243 65.6718 65.054C64.6765 66.0853 63.6284 67.0485 62.5276 67.9437C61.4268 68.8388 60.2839 69.6628 59.099 70.4155C57.9141 71.1667 56.6964 71.8427 55.4457 72.4437C54.1966 73.0446 52.9253 73.5681 51.6319 74.0141C50.3384 74.4617 49.0335 74.8318 47.7171 75.1244C46.3992 75.4155 45.0798 75.6315 43.7588 75.7723C42.4378 75.9131 41.1245 75.9797 39.8188 75.9718C38.5116 75.9656 37.2205 75.8897 35.9454 75.7441C34.6703 75.597 33.4181 75.3858 32.1888 75.1103C30.9611 74.8349 29.7625 74.5 28.5929 74.1056C27.4248 73.7097 26.2911 73.2613 25.1918 72.7606C24.0941 72.2598 23.0361 71.7121 22.0178 71.1174C20.9996 70.5227 20.0241 69.8889 19.0915 69.216C18.1604 68.5415 17.2736 67.8349 16.4312 67.0962C15.5903 66.3576 14.7961 65.5931 14.0484 64.8028C13.2993 64.0125 12.5983 63.2027 11.9454 62.3732C11.2911 61.5454 10.6826 60.705 10.1199 59.8521C9.55881 58.9977 9.04281 58.1377 8.57191 57.2723C8.09948 56.4053 7.67062 55.5376 7.28534 54.669C6.90005 53.8005 6.55223 52.9366 6.24186 52.0775C5.93149 51.2183 5.65629 50.3685 5.41625 49.5282C5.17622 48.6862 4.96982 47.856 4.79705 47.0376C4.62275 46.2191 4.47904 45.4147 4.3659 44.6244C4.25429 43.8357 4.16944 43.0642 4.11134 42.3099C4.05477 41.554 4.02266 40.8185 4.01502 40.1033C4.00584 39.3881 4.01884 38.6948 4.054 38.0235C4.08764 37.3505 4.13962 36.7019 4.20995 36.0775C4.28028 35.4515 4.36513 34.8505 4.46451 34.2746C4.56542 33.6987 4.67627 33.1479 4.79705 32.6221C4.91936 32.0962 5.04932 31.5962 5.18692 31.1221C5.32452 30.6479 5.54162 30.0141 5.83823 29.2207C6.13637 28.4272 6.42762 27.7347 6.712 27.1432C6.9979 26.5501 7.25782 26.0509 7.49174 25.6455C7.72566 25.2402 7.9183 24.9218 8.06966 24.6901C8.21949 24.4585 8.29518 24.3427 8.2967 24.3427C8.2967 24.3427 8.29747 24.3427 8.299 24.3427C8.299 24.3443 8.18815 24.6972 7.96646 25.4014C7.74477 26.1072 7.54525 26.7692 7.3679 27.3873C7.18902 28.007 6.99943 28.7144 6.79915 29.5094C6.59886 30.3059 6.44903 30.9366 6.34965 31.4014C6.25027 31.8662 6.15395 32.3537 6.06069 32.8638C5.96742 33.374 5.87951 33.9069 5.79695 34.4624C5.71592 35.0164 5.64406 35.5939 5.58138 36.1948C5.51716 36.7942 5.46594 37.4163 5.42772 38.061C5.39103 38.7058 5.36962 39.3717 5.36351 40.0587C5.35892 40.7457 5.37497 41.4531 5.41167 42.1808C5.44683 42.9085 5.50799 43.6541 5.59514 44.4178C5.68075 45.1815 5.79619 45.9609 5.94143 46.7559C6.08668 47.5524 6.26556 48.3607 6.47808 49.1808C6.69059 50.0008 6.94133 50.8294 7.2303 51.6667C7.51926 52.5039 7.85027 53.3435 8.22332 54.1854C8.59637 55.0274 9.0107 55.8685 9.46631 56.7089C9.92346 57.5509 10.4234 58.3858 10.9662 59.2136C11.5105 60.0415 12.0991 60.8576 12.732 61.662C13.365 62.4664 14.0438 63.2527 14.7685 64.0211C15.4932 64.788 16.263 65.5305 17.0779 66.2488C17.8929 66.9671 18.7521 67.6541 19.6557 68.3099C20.5593 68.964 21.5049 69.5806 22.4926 70.1596C23.4802 70.7371 24.5069 71.27 25.5725 71.7582C26.6382 72.2465 27.7382 72.6831 28.8727 73.0681C30.0071 73.4531 31.1706 73.7809 32.3631 74.0516C33.5557 74.3208 34.7704 74.5274 36.0073 74.6714C37.2457 74.8153 38.4994 74.8912 39.7684 74.8991C41.0358 74.9085 42.3117 74.8459 43.596 74.7113C44.8787 74.5767 46.1592 74.3685 47.4373 74.0869C48.717 73.8052 49.9853 73.4491 51.242 73.0188C52.4988 72.5869 53.7341 72.0798 54.9481 71.4977C56.162 70.9171 57.3446 70.2629 58.4959 69.5352C59.6472 68.8075 60.7579 68.0102 61.8281 67.1432C62.8968 66.2762 63.9151 65.3435 64.8829 64.3451C65.8507 63.3466 66.7596 62.2895 67.6097 61.1737C68.4582 60.0563 69.2387 58.8881 69.9512 57.669C70.6652 56.4499 71.3035 55.1878 71.8661 53.8826C72.4303 52.5775 72.9134 51.2394 73.3155 49.8685C73.7192 48.4977 74.0372 47.1041 74.2696 45.6878C74.502 44.2731 74.6472 42.8466 74.7053 41.4085C74.7634 39.9718 74.7328 38.5352 74.6136 37.0986C74.4943 35.662 74.2871 34.2387 73.9921 32.8286C73.697 31.4171 73.3163 30.0297 72.85 28.6667C72.3837 27.3036 71.8355 25.975 71.2056 24.6807C70.5773 23.3881 69.8724 22.1408 69.0912 20.939C68.3099 19.7355 67.4598 18.5876 66.541 17.4953C65.6221 16.4014 64.6428 15.3709 63.6032 14.4038C62.562 13.4366 61.4704 12.5383 60.3283 11.7089C59.1847 10.8811 57.9998 10.1275 56.7736 9.44836C55.5474 8.76917 54.2906 8.16823 53.0033 7.64554C51.7144 7.12441 50.4057 6.6831 49.0771 6.32159C47.7485 5.96009 46.4099 5.67997 45.0614 5.48122C43.7145 5.28091 42.3675 5.16119 41.0205 5.12206C39.6736 5.08294 38.3381 5.1205 37.0141 5.23474C35.6885 5.35055 34.3828 5.53912 33.097 5.80047C31.8112 6.06338 30.5537 6.39436 29.3244 6.79343C28.0952 7.19249 26.9011 7.65415 25.7422 8.1784C24.5833 8.70266 23.4657 9.28247 22.3894 9.91784C21.313 10.5548 20.2833 11.2402 19.3002 11.9742C18.3171 12.7081 17.3845 13.4828 16.5023 14.2981C15.6201 15.1135 14.7899 15.9624 14.0117 16.8451C13.2351 17.7293 12.5126 18.6377 11.8445 19.5704C11.1764 20.5047 10.5625 21.4577 10.003 22.4296C9.44338 23.3998 8.93808 24.3811 8.48705 25.3732C8.03603 26.3654 7.63775 27.3615 7.29222 28.3615C6.94668 29.3631 6.65161 30.3623 6.40698 31.3592C6.16236 32.356 5.96666 33.3443 5.81988 34.3239C5.67158 35.3052 5.56838 36.2731 5.51028 37.2277C5.45218 38.1823 5.43613 39.1189 5.46212 40.0376C5.48964 40.9562 5.55003 41.8537 5.6433 42.73C5.73809 43.6064 5.86193 44.4585 6.01482 45.2864C6.16771 46.1142 6.34506 46.9171 6.54688 47.6948C6.74869 48.471 6.97038 49.2207 7.21195 49.9437C7.45352 50.6682 7.71037 51.3646 7.98252 52.0329C8.25313 52.7027 8.53521 53.3451 8.82876 53.9601C9.12078 54.5751 9.41662 55.1659 9.71629 55.7324C10.016 56.2973 10.3149 56.8396 10.613 57.3592C10.9111 57.8803 11.207 58.3787 11.5005 58.8545C11.7925 59.3302 12.08 59.7856 12.3628 60.2207C12.6457 60.6541 13.0493 61.2441 13.5737 61.9906C14.0996 62.7371 14.5881 63.4045 15.0392 63.993C15.4917 64.5814 15.8976 65.0908 16.2569 65.5211C16.6162 65.9531 16.9747 66.4171 17.3325 66.9131L17.8669 67.662Z" fill="currentColor" stroke="currentColor" stroke-width="4" stroke-linecap="round" stroke-linejoin="round"></path>
<path d="M37.1654 12.2817C37.1654 12.2817 37.355 12.2692 37.7342 12.2441C38.1149 12.2191 38.6691 12.2238 39.3968 12.2582C40.1246 12.2911 40.7843 12.3279 41.376 12.3685C41.9662 12.4092 42.6511 12.4875 43.4309 12.6033C44.2091 12.7175 45.0805 12.8983 46.0453 13.1455C47.0115 13.3944 48.042 13.7332 49.1367 14.162C50.2329 14.5908 51.3292 15.1041 52.4254 15.7019C53.5231 16.3013 54.5888 17.0023 55.6223 17.8052C56.6543 18.608 57.629 19.464 58.5463 20.3732C59.4637 21.2825 60.248 22.1526 60.8993 22.9836C61.5506 23.8146 62.1431 24.6573 62.6767 25.5117C63.2102 26.3662 63.6964 27.284 64.1352 28.2653C64.574 29.2465 64.9318 30.1518 65.2085 30.9812C65.4853 31.8106 65.7169 32.6174 65.9034 33.4014C66.0915 34.1839 66.2543 34.9319 66.3919 35.6455C66.5295 36.3607 66.6434 37.025 66.7336 37.6385C66.8253 38.2504 66.9094 38.777 66.9859 39.2183C67.0638 39.6596 67.1525 40.115 67.2519 40.5845C67.3497 41.0524 67.4201 41.4444 67.4629 41.7606C67.5057 42.0767 67.521 42.2872 67.5088 42.392C67.4981 42.4953 67.4713 42.5947 67.4285 42.6901C67.3842 42.7856 67.3268 42.8709 67.2565 42.946C67.1862 43.0227 67.1059 43.0853 67.0157 43.1338C66.924 43.1823 66.8276 43.2152 66.7267 43.2324C66.6258 43.248 66.5249 43.2473 66.424 43.23C66.3231 43.2128 66.2275 43.18 66.1373 43.1315C66.0471 43.0814 65.9669 43.018 65.8965 42.9413C65.8262 42.8662 65.7704 42.7809 65.7291 42.6854C65.6863 42.59 65.6595 42.4898 65.6488 42.385C65.6366 42.2817 65.642 42.1792 65.6649 42.0775C65.6878 41.9742 65.7253 41.8779 65.7773 41.7887C65.8308 41.6995 65.8965 41.6213 65.9745 41.554C66.0525 41.4851 66.1396 41.4319 66.2359 41.3944C66.3307 41.3552 66.4294 41.3333 66.5318 41.3286C66.6327 41.3224 66.7328 41.3333 66.8322 41.3615C66.9301 41.3912 67.0218 41.4351 67.1074 41.493C67.1915 41.5524 67.2641 41.6236 67.3253 41.7066C67.388 41.7911 67.4354 41.8826 67.4675 41.9812C67.4996 42.0814 67.5156 42.1839 67.5156 42.2887C67.5156 42.3936 67.4988 42.4953 67.4652 42.5939C67.4315 42.6925 67.3841 42.784 67.323 42.8685C67.2603 42.9515 67.1869 43.0219 67.1028 43.0798C67.0172 43.1377 66.9255 43.1807 66.8276 43.2089C66.7282 43.2371 66.6273 43.248 66.5249 43.2418C66.4225 43.2355 66.3239 43.2128 66.2291 43.1737C66.1343 43.1346 66.0479 43.0814 65.9699 43.0141C65.8919 42.9452 65.827 42.8662 65.775 42.777C65.723 42.6862 65.6863 42.59 65.6649 42.4883C65.642 42.3865 65.6305 42.3357 65.6305 42.3357C65.6305 42.3357 65.6358 42.1815 65.6466 41.8732C65.6588 41.5649 65.6779 41.1784 65.7039 40.7136C65.7314 40.2488 65.7429 39.7981 65.7383 39.3615C65.7322 38.9249 65.6993 38.4108 65.6397 37.8192C65.58 37.2277 65.4822 36.5829 65.3461 35.885C65.2116 35.1854 65.0533 34.4601 64.8714 33.7089C64.691 32.9577 64.4678 32.1854 64.2017 31.392C63.9372 30.597 63.5963 29.7332 63.1789 28.8005C62.7615 27.8662 62.2952 26.9898 61.78 26.1714C61.2647 25.3529 60.6952 24.5485 60.0714 23.7582C59.4476 22.9679 58.6916 22.1369 57.8033 21.2653C56.9135 20.3936 55.9755 19.5798 54.9893 18.8239C54.0032 18.0681 52.9819 17.41 51.9254 16.8498C50.869 16.2895 49.8155 15.8153 48.7652 15.4272C47.7133 15.0391 46.7287 14.7433 45.8114 14.5399C44.8925 14.3349 44.0554 14.1995 43.3001 14.1338C42.5449 14.0681 41.8874 14.0203 41.3278 13.9906C40.7683 13.9609 40.1246 13.9624 39.3968 13.9953C38.6691 14.0297 38.1149 14.0344 37.7342 14.0094C37.355 13.9843 37.1325 13.9679 37.0668 13.9601C37.0011 13.9507 36.9376 13.9343 36.8765 13.9108C36.8138 13.8873 36.7549 13.856 36.6999 13.8169C36.6464 13.7778 36.5974 13.7332 36.5531 13.6831C36.5088 13.6315 36.4713 13.5759 36.4407 13.5164C36.4101 13.4554 36.3864 13.392 36.3696 13.3263C36.3543 13.2606 36.3467 13.1941 36.3467 13.1268C36.3467 13.0595 36.3543 12.993 36.3696 12.9272C36.3864 12.8615 36.4101 12.7981 36.4407 12.7371C36.4713 12.6776 36.5088 12.6221 36.5531 12.5704C36.5974 12.5203 36.6464 12.4757 36.6999 12.4366C36.7549 12.3975 36.8138 12.3662 36.8765 12.3427C36.9376 12.3192 37.0011 12.3028 37.0668 12.2934L37.1654 12.2817Z" fill="currentColor" stroke="currentColor" stroke-width="2.26526" stroke-linecap="round" stroke-linejoin="round" class="transition-transform duration-500 origin-center group-hover:rotate-180"></path>
</svg>
